<?xml version="1.0" encoding="UTF-8"?>
<svg id="Layer_2" data-name="Layer 2" xmlns="http://www.w3.org/2000/svg" viewBox="0 0 66.32 41.12">
  <defs>
    <style>
      .cls-1 {
        fill: #0565bb;
        stroke: #111;
        stroke-width: 0.2px;
      }
    </style>
  </defs>
  <polygon class="cls-1" points="33.18 41.12 31.28 34.92 28.92 40.97 27.5 34.64 24.68 40.48 23.78 34.05 20.47 39.63 20.14 33.15 16.33 38.4 16.65 31.92 12.29 36.72 13.38 30.33 8.42 34.52 10.45 28.36 4.85 31.64 8.05 26.01 1.86 27.9 6.46 23.37 0 23.18 5.92 20.58 0 17.99 6.46 17.8 1.85 13.27 8.05 15.15 4.84 9.52 10.44 12.8 8.41 6.64 13.37 10.82 12.27 4.43 16.63 9.23 16.3 2.75 20.12 7.99 20.44 1.51 23.76 7.09 24.64 .66 27.48 6.5 28.89 .16 31.25 6.21 33.15 0 35.05 6.2 37.4 .16 38.82 6.49 41.65 .65 42.54 7.07 45.86 1.49 46.18 7.97 50 2.73 49.67 9.2 54.04 4.4 52.95 10.79 57.9 6.61 55.87 12.77 61.47 9.48 58.27 15.11 64.47 13.23 59.86 17.76 66.32 17.94 60.41 20.54 66.32 23.14 59.86 23.33 64.47 27.85 58.28 25.98 61.48 31.6 55.89 28.33 57.92 34.48 52.96 30.3 54.06 36.69 49.69 31.9 50.02 38.37 46.2 33.13 45.88 39.61 42.56 34.04 41.68 40.46 38.84 34.63 37.43 40.96 35.07 34.92 33.18 41.12"/>
</svg>