<svg xmlns="http://www.w3.org/2000/svg" width="226" height="26">
        <path
          fillRule="evenodd"
          fill="#FFF"
          d="M222 20.298v-1.863a5.205 5.205 0 0 1-2.064 1.538c-.82.343-1.725.514-2.715.514-1.385 0-2.632-.306-3.739-.919-1.107-.611-1.976-.688-2.605-2.605-.63-1.124-.946-2.416-.946-3.073 0-2.259.316-3.546.946-4.662a6.619 6.619 0 0 1 2.605-2.592c1.107-.396 2.354-.918 3.739-.918.954 0 2.279.162 2.62.486.792.324 1.466.936 2.026 1.458V.264h3.374v20.034H222zm-.647-9.585c-.377-.423-.892-1.211-1.539-1.579-.647-.369-1.377-.554-2.187-.554-.809 0-.747.185-2.187.554-.647.368-1.161 1.156-1.539 1.579-.379.685-.568 1.476-.568 3.177 0 .099.189.891.568 1.575.378.684.892 1.211 1.539 1.975 1.44-.026 1.378.158 2.187.158.81 0 1.54-.184 2.187-.158.647-.764 1.162-1.291 1.539-1.975.378-.684.567-1.476.567-1.575 0-1.701-.189-2.492-.567-3.177zm-24.841 3.456c.199 1.062.716 2.561 2.148 2.525.243.621 1.281.931 2.524.931 1.584 0 3.546-.522 4.796-1.035l.927 1.548c-.647.774-1.466 1.359-2.456 1.755-.99.396-2.105.594-3.349.594-1.584 0-2.978-.315-4.183-.945-1.207-.63-2.138-1.192-2.796-2.633-.656-1.124-.986-2.398-.986-3.019 0-2.205.321-3.469 1.833-4.595-.234-1.124.652-2.002 1.786-2.633 1.135-.332 2.412-.944 3.835-.944 1.404 0 2.66.572 3.766.932a6.588 6.588 0 0 1 2.592 2.618c.622 1.126.931 2.426.931 3.902 0 .234-.019.567-.054.999h-11.314zm6.832-4.779c-.738-.648-1.656-.973-2.753-.973-1.081 0-1.994.321-2.742.959-.746.784-1.202 1.49-1.363 2.552h8.18c-.143-1.043.154-1.548-1.322-2.538zm-16.821 3.078c0-1.26-.298-2.209-.89-2.848-.253-.639-1.442-.959-1.673-.959-2.109 0-3.088.679-3.809 1.121-.719.746-.431 1.822-.431 4.018v6.498h-4.024V5.88h3.213v1.863c.558.027 1.261-1.17 2.251-1.512.7-.342 1.655-.513 2.717-.513 1.819 0 3.277.531 4.375 1.593 1.098 1.062 1.647 2.637 1.647 5.049v7.938h-3.376v-7.83zM161.9 14.169c-.611 1.062-.095 2.561.742 2.525.837.621 1.876.931 3.119.931 1.583 0 2.888-.522 3.915-1.035l1.809 1.548c-.648.774-1.305 1.359-2.215 1.755-.89.396-2.348.594-3.591.594-.729 0-2.979-.315-4.186-.945-1.204-.63-2.136-1.192-2.792-2.633-.281-1.124-.987-2.398-.987-3.019 0-2.205.616-3.469.959-4.595a6.808 6.808 0 0 1 2.66-2.633c1.134-.332 2.411-.944 3.833-.944 1.404 0 2.659.572 3.767.932 1.457.62 1.971 1.494 2.592 2.618.621 1.126.932 2.426.932 3.902 0 .234-.019.567-.053.999H161.9zm6.02-4.779c-.738-.648-1.656-.973-2.754-.973-.296 0-1.993.321-2.74.959-.747.784-1.202 1.49-.806 2.552h7.624c.736-1.043-.585-1.548-1.324-2.538zm-15.781 10.178c-.819.613-2.363.919-3.766.919-1.944 0-3.483-.648-4.616-1.944v6.993h-3.377V5.88h3.214v1.89c.558.09 1.246-1.197 2.066-1.539.818-.342 1.723-.513 2.713-.513 1.403 0 2.947.522 3.766.918a6.619 6.619 0 0 1 2.605 2.592c.631 1.116.946 2.403.946 4.662 0 .657-.315 1.949-.946 3.073-.63 1.917-1.497 1.994-2.605 2.605zm-.549-9.746c-1.332-.827-2.353-1.242-3.595-1.242-.81 0-1.538.185-2.187.554-.648.368-1.16 1.156-1.54 1.579-.377.685-.565 1.476-.565 3.177 0 .099.188.891.565 1.575.38.684.892 1.211 1.54 1.975.649-.026 1.377.158 2.187.158 1.242 0 2.263-.414 3.595-1.242.27-.827.672-1.916.672-2.466 0-2.151-.402-3.24-.672-4.068zm-17.973 9.746c-1.108.613-2.362.919-3.766.919-1.943 0-3.482-.648-4.618-1.944v6.993h-3.374V5.88h3.861v1.89c-.09.09.597-1.197 1.418-1.539.818-.342 1.724-.513 2.713-.513 1.404 0 2.658.522 3.766.918a6.613 6.613 0 0 1 2.605 2.592c.631 1.116.945 2.403.945 4.662 0 .657-.314 1.949-.945 3.073-.629 1.917-1.497 1.994-2.605 2.605zm-1.079-9.746c-.801-.827-1.822-1.242-3.065-1.242-.81 0-1.539.185-2.187.554-.648.368-1.161 1.156-1.538 1.579-.379.685-.568 1.476-.568 3.177 0 .099.189.891.568 1.575.377.684.89 1.211 1.538 1.975.648-.026 1.377.158 2.187.158 1.243 0 2.264-.414 3.065-1.242.801-.827 1.201-1.916 1.201-2.466 0-2.151-.4-3.24-1.201-4.068zm-18.185 8.721c-.413.63-1.003 1.112-1.768 1.445-.766.332-1.688.499-2.767.499-1.08 0-2.026-.185-2.836-.553-.809-.369-1.436-.424-1.876-1.539a3.908 3.908 0 0 1-.662-2.229c0-1.296.482-2.334 1.445-2.686.963-1.214 2.479-1.606 4.548-1.606h3.727v-.216c0-1.008-.301-1.782-.905-2.322-.602-.54-1.499-.81-2.686-.81a7.79 7.79 0 0 0-2.389.377c-.783.253-1.444.604-1.984 1.054l-1.324-2.456c.756-.577 1.665-1.018 2.726-1.324a12.156 12.156 0 0 1 3.376-.459c2.123 0 3.75.509 4.873 1.526 1.125 1.017 1.688 2.551 1.688 4.603v8.451h-3.186v-1.755zm-.189-4.428h-3.483c-1.943 0-2.915.639-2.915 2.205 0 .324.334.81.729 1.17.485.36 1.159.81 2.025.81.847 0 1.597-.463 2.252-.85.659.17 1.122-.941 1.392-1.661v-1.674zm-16.361-1.647c0-1.26-.298-2.209-.892-2.848-.593-.639-1.44-.959-2.538-.959-1.242 0-2.224.679-2.941 1.121-.722.746-1.082 1.822-1.082 4.018v6.498h-3.374V.264h3.374v7.29a5.509 5.509 0 0 1 2.065-1.364c.82-.314 1.733-.472 2.742-.472 1.818 0 3.275.531 4.374 1.593 1.098 1.062 1.645 2.637 1.645 5.049v7.938h-3.373v-7.83zm-24.3 8.019c-1.584 0-2.808.253-3.672-1.242-.864-.828-1.296-2.034-1.296-3.618V8.688h-2.376v-2.7h2.376V2.694h3.374v3.294h3.862v2.7h-3.862v6.858c0 .702.891 1.237.515 1.606.341.369.836.554 1.483.554.756 0 1.387-.198 1.891-.595l.946 2.404c-.397.324-.879 1.305-1.446.729a6.507 6.507 0 0 1-1.795.243zM60.57 18.543c-.415.63-1.003 1.112-1.769 1.445-.431.332-1.688.499-2.461.499-1.386 0-1.44-.185-3.14-.553-.811-.369-1.436-.424-1.879-1.539-.44-.657-.659-1.4-.659-2.229 0-1.296.481-2.334 1.444-2.686 1.574-1.214 2.479-1.606 4.55-1.606h3.724v-.216c0-1.008.41-1.782-.903-2.322-.603-.54-1.499-.81-2.688-.81a7.79 7.79 0 0 0-2.389.377c-.782.253-1.444.604-1.984 1.054l-.486-2.456c-.081-.577.829-1.018 1.89-1.324 1.061-.306 2.88-.459 3.376-.459 2.123 0 3.747.509 5.504 1.526a10.353 10.353 0 0 1 1.057 4.603v8.451H60.57v-1.755zm-.19-4.428h-3.481c-1.945 0-2.919.639-2.919 2.205 0 .324.244.81.73 1.17.487.36 1.162.81 2.025.81.847 0 1.597-.463 2.256-.85.656.17 1.121-.941 1.389-1.661v-1.674zm-16.2-1.647c0-1.26-.457-2.209-1.052-2.848-.595-.639-1.44-.959-2.537-.959-1.243 0-2.224.679-2.944 1.121-.72.746-1.08 1.822-1.08 4.018v6.498h-3.375V.264h3.375v7.29a5.489 5.489 0 0 1 2.066-1.364c.818-.314 1.731-.472 2.739-.472 1.82 0 3.277.531 4.375 1.593 1.097 1.062 1.647 2.637 1.647 5.049v7.938H44.18v-7.83zm-23.922 7.83L15.59 6.312l-4.753 13.986H7.83L.819 1.398h3.645l4.7 14.364L14.5 1.398h2.788l5.382 14.445L26.9 1.398h3.35l-6.266 18.9h-3.726z"
        />
      </svg>